<?xml version="1.0"?>
<svg xmlns="http://www.w3.org/2000/svg" viewBox="0 0 512 512" width="512" height="512"><g id="outline"><path d="M432,220V139.312l18.344,18.343a8,8,0,0,0,11.312-11.312L432,116.687V99.312l18.344,18.343a8,8,0,0,0,11.312-11.312L432,76.686V59.311l18.344,18.344a8,8,0,0,0,11.312-11.312l-32-32a8,8,0,0,0-11.312,0l-32,32a8,8,0,0,0,11.312,11.312L416,59.311V76.686l-29.656,29.657a8,8,0,0,0,11.312,11.312L416,99.312v17.375l-29.656,29.656a8,8,0,0,0,11.312,11.312L416,139.312V208l-83.2-62.4a7.992,7.992,0,0,0-9.594,0L224,220V154.421l17.344,26.016a8,8,0,0,0,13.312-8.875L224,125.577V106.421l17.344,26.016a8,8,0,0,0,13.312-8.875L224,77.577V50.421l17.344,26.015a8,8,0,1,0,13.312-8.875l-32-48c-2.969-4.453-10.344-4.453-13.313,0l-32,48a8,8,0,0,0,13.313,8.875L208,50.421V77.577L177.34,123.562a8,8,0,0,0,13.313,8.875L208,106.421v19.156L177.34,171.562a8,8,0,0,0,13.313,8.875L208,154.421V232l-44.8,33.6A7.989,7.989,0,0,0,160,272v24a8,8,0,0,0,8,8h9.387a23.92,23.92,0,0,0,4.739,24,23.951,23.951,0,0,0,0,32,24.009,24.009,0,0,0-4.69,24H104V296.964l25.492,35.684a8,8,0,1,0,13.015-9.3L104,269.44V240.964l25.492,35.684a8,8,0,1,0,13.015-9.3L104,213.44V184.964l25.492,35.684a8,8,0,1,0,13.015-9.3L104,157.44V128.963l25.492,35.685a8,8,0,1,0,13.015-9.3l-40-56c-3-4.211-10.015-4.211-13.015,0l-40,56a8,8,0,1,0,13.015,9.3L88,128.963V157.44L49.489,211.351a8,8,0,1,0,13.015,9.3L88,184.964V213.44L49.489,267.351a8,8,0,1,0,13.015,9.3L88,240.964V269.44L49.489,323.351a8,8,0,1,0,13.015,9.3L88,296.964V384H80a32.034,32.034,0,0,0-32,32,31.652,31.652,0,0,0,4.636,16.34A31.914,31.914,0,0,0,56,496H455.927c.015,0,.032,0,.047,0a23.9,23.9,0,0,0,17.82-39.935,24.006,24.006,0,0,0,3.844-26.44,23.665,23.665,0,0,0-3.843-5.561,24.008,24.008,0,0,0,3.843-26.44,23.68,23.68,0,0,0-3.843-5.56,24.008,24.008,0,0,0,3.843-26.44,23.7,23.7,0,0,0-3.843-5.56,24.008,24.008,0,0,0,3.843-26.44,23.673,23.673,0,0,0-3.843-5.559A24,24,0,0,0,478.56,304H488a8,8,0,0,0,8-8V272a7.989,7.989,0,0,0-3.2-6.4ZM278.732,239.744A7.54,7.54,0,0,0,280,240h96a7.561,7.561,0,0,0,1.265-.255L398.519,256H257.475ZM299.32,224,328,202.07,356.674,224ZM312,448H222.54a23.788,23.788,0,0,0,.019-16H336v16Zm0-176h32v16H312Zm-8,32H433.385a23.869,23.869,0,0,0,.115,16H222.54a23.788,23.788,0,0,0,.019-16ZM448.45,469.347A8.017,8.017,0,0,1,456.005,464a7.92,7.92,0,0,1,2.648.453,8,8,0,1,1-10.2,4.894ZM416,400h17.452a23.812,23.812,0,0,0-.015,16H416Zm0-16V368h17.452a23.812,23.812,0,0,0-.015,16Zm0-32V336h17.452a23.813,23.813,0,0,0-.015,16ZM202.653,464.453A8,8,0,1,1,200,464,7.926,7.926,0,0,1,202.653,464.453ZM336,384H320V368h16Zm-32-24H288V344h16Zm-32,0H256V344h16Zm-32,24H222.54a23.788,23.788,0,0,0,.019-16H240Zm16-8h16v16H256Zm32,0h16v16H288Zm-48-24H222.54a23.788,23.788,0,0,0,.019-16H240Zm-43.461-15.214a8,8,0,1,1-3.758,10.672A7.989,7.989,0,0,1,196.536,336.785Zm0,32a8,8,0,1,1-3.758,10.672A7.988,7.988,0,0,1,196.536,368.785Zm10.679,35.758A8.01,8.01,0,1,1,199.981,400,8.01,8.01,0,0,1,207.215,404.543Zm-3.757,42.672a8,8,0,1,1,3.757-10.672A8.014,8.014,0,0,1,203.458,447.215ZM222.559,400H240a8,8,0,0,0,8,8h64a8,8,0,0,0,8-8h16v16H222.54A23.788,23.788,0,0,0,222.559,400ZM336,352H320V336h16ZM196.536,304.785a8,8,0,1,1-3.758,10.671A7.989,7.989,0,0,1,196.536,304.785ZM176.005,408H136a8,8,0,0,0,0,16h46.125v0a24.092,24.092,0,0,0-4.675,8h-69.9a30.983,30.983,0,0,0,0-32h69.9A24.042,24.042,0,0,0,176.005,408ZM88,464a16,16,0,1,1,16,16A16.018,16.018,0,0,1,88,464Zm43.55-16h45.887a21.388,21.388,0,0,0,4.69,8H160a8,8,0,0,0,0,16h16.1a23.835,23.835,0,0,0,1.4,8h-45.95a30.983,30.983,0,0,0,0-32Zm90.978,16H304v16H222.622c0-.012.011-.023.015-.035A23.573,23.573,0,0,0,222.524,464ZM352,336h48V448H352Zm64,96h17.452a23.812,23.812,0,0,0-.015,16H416Zm43.461,15.215a8,8,0,1,1,3.758-10.672A8.015,8.015,0,0,1,459.458,447.215Zm0-32a8,8,0,1,1,3.758-10.671A8.02,8.02,0,0,1,459.458,415.214Zm0-32a8,8,0,1,1,3.758-10.672A8.02,8.02,0,0,1,459.458,383.214Zm0-32a8,8,0,1,1,3.758-10.672A8.017,8.017,0,0,1,459.458,351.214Zm0-32a8,8,0,1,1,3.758-10.672A8.027,8.027,0,0,1,459.458,319.214ZM360,288V272h59.444l20.923,16ZM236.552,272H296v16H215.63ZM80,400a16,16,0,1,1-16,16A16.017,16.017,0,0,1,80,400ZM40,464a16,16,0,1,1,16,16A16.018,16.018,0,0,1,40,464Zm280,0H433.373c0,.012-.012.022-.017.035A23.771,23.771,0,0,0,433.5,480H320ZM480,288H466.706L332.856,185.644a7.991,7.991,0,0,0-9.718,0L189.288,288H176V276L328,162,480,276Z"/></g></svg>
