<svg id="Layer_1" enable-background="new 0 0 64 64" height="512" viewBox="0 0 64 64" width="512" xmlns="http://www.w3.org/2000/svg"><path d="m53.7 43-2.6 3.4-6.4-5.1 1.9-3.8-2.4-.8-5 9-7.2-7.3-7.2 7.2-5-9-2.4.8 1.9 3.8-6.4 5.1-2.6-3.3c-.2.6-.3 1.2-.3 1.9v15.1h8v-6h2v6h24v-6h2v6h8v-15.1c0-.6-.1-1.3-.3-1.9zm-25.7 10.6-3 1.5-3-1.5v-5.6h6zm5 4.4h-2v-2h2zm0-4h-2v-2h2zm0-4h-2v-2h2zm0-4h-2v-2h2zm13 4h-10v-2h10z"/><path d="m26 52.4v-2.4h-2v2.4l1 .5z"/><path d="m16.7 40.7-1.3-2.7-.5.2c-1.5.5-2.8 1.4-3.7 2.8l2 2.6z"/><path d="m24.9 35.1-3.2 1 3.5 6.3 4.7-4.7c-1.4-.3-2.7-.9-3.8-1.7z"/><path d="m37.9 36c-1.1.8-2.4 1.4-3.8 1.7l4.7 4.7 3.5-6.3-3.2-1z"/><path d="m44 24v-1.5c0-.6-.4-1-.9-1.2l-1.1-.2v-3.1h-20v3.1l-1.1.3c-.5.1-.9.6-.9 1.2v1.4c0 .5.3.9.7 1.1l1.3.7v2.2c0 1.6.8 3.1 2.1 4l3.2 2.4c2.8 2 6.6 2 9.4 0l3.2-2.4c1.3-.9 2.1-2.4 2.1-4v-2.2l1.3-.7c.4-.2.7-.6.7-1.1z"/><path d="m15 16h34c.6 0 1-.4 1-1s-.4-1-1-1h-34c-.6 0-1 .4-1 1s.4 1 1 1z"/><path d="m48.6 38-1.3 2.7 3.6 2.9 2-2.6c-.9-1.3-2.2-2.3-3.7-2.8z"/><path d="m41.6 10h-19.2l-.3 2h19.8z"/><path d="m41.2 6.9c-.1-.5-.5-.9-1-.9h-4.6l-1.9-1.4c-1.1-.8-2.5-.8-3.6 0l-1.8 1.4h-4.6c-.5 0-.9.4-1 .9l-.1 1.1h18.7z"/></svg>